HIERARCHY
ROOT Hips
{
	OFFSET -0.09297 91.81560 -12.71420
	CHANNELS 6 Xposition Yposition Zposition Zrotation Xrotation Yrotation
	JOINT Spine
	{
		OFFSET 0.00000 14.09320 -1.51142
		CHANNELS 3 Zrotation Xrotation Yrotation
		JOINT Spine1
		{
			OFFSET 0.00000 8.69660 0.00000
			CHANNELS 3 Zrotation Xrotation Yrotation
			JOINT Spine2
			{
				OFFSET 0.00000 8.69660 0.00000
				CHANNELS 3 Zrotation Xrotation Yrotation
				JOINT Spine3
				{
					OFFSET 0.00000 8.69660 0.00000
					CHANNELS 3 Zrotation Xrotation Yrotation
					JOINT Neck
					{
						OFFSET 0.00000 11.18130 1.11813
						CHANNELS 3 Zrotation Xrotation Yrotation
						JOINT Neck1
						{
							OFFSET 0.00000 5.70631 0.00000
							CHANNELS 3 Zrotation Xrotation Yrotation
							JOINT Head
							{
								OFFSET 0.00000 5.70631 0.00000
								CHANNELS 3 Zrotation Xrotation Yrotation
								End site
								{
									OFFSET 0.00000 9.71257 0.00000
								}
							}
						}
					}
					JOINT RightShoulder
					{
						OFFSET 0.00000 7.98668 5.19711
						CHANNELS 3 Zrotation Xrotation Yrotation
						JOINT RightArm
						{
							OFFSET 0.00000 18.31580 0.00000
							CHANNELS 3 Zrotation Xrotation Yrotation
							JOINT RightForeArm
							{
								OFFSET 0.00000 28.87420 0.00000
								CHANNELS 3 Zrotation Xrotation Yrotation
								JOINT RightHand
								{
									OFFSET 0.00000 23.87720 0.00000
									CHANNELS 3 Zrotation Xrotation Yrotation
									JOINT RightHandThumb1
									{
										OFFSET -2.41094 4.67063 3.47303
										CHANNELS 3 Zrotation Xrotation Yrotation
										JOINT RightHandThumb2
										{
											OFFSET 0.00000 3.95207 0.00000
											CHANNELS 3 Zrotation Xrotation Yrotation
											JOINT RightHandThumb3
											{
												OFFSET 0.00000 2.15568 0.00000
												CHANNELS 3 Zrotation Xrotation Yrotation
												End site
												{
													OFFSET 0.00000 1.91616 0.00000
												}
											}
										}
									}
									JOINT RightHandIndex1
									{
										OFFSET 0.00000 12.45500 2.51496
										CHANNELS 3 Zrotation Xrotation Yrotation
										JOINT RightHandIndex2
										{
											OFFSET 0.00000 4.79039 0.00000
											CHANNELS 3 Zrotation Xrotation Yrotation
											JOINT RightHandIndex3
											{
												OFFSET 0.00000 2.63472 0.00000
												CHANNELS 3 Zrotation Xrotation Yrotation
												End site
												{
													OFFSET 0.00000 1.91616 0.00000
												}
											}
										}
									}
									JOINT RightHandMiddle1
									{
										OFFSET 0.00000 12.45500 -0.07984
										CHANNELS 3 Zrotation Xrotation Yrotation
										JOINT RightHandMiddle2
										{
											OFFSET 0.00000 5.38919 0.00000
											CHANNELS 3 Zrotation Xrotation Yrotation
											JOINT RightHandMiddle3
											{
												OFFSET 0.00000 3.11376 0.00000
												CHANNELS 3 Zrotation Xrotation Yrotation
												End site
												{
													OFFSET 0.00000 2.03592 0.00000
												}
											}
										}
									}
									JOINT RightHandRing1
									{
										OFFSET 0.00000 11.07780 -2.67464
										CHANNELS 3 Zrotation Xrotation Yrotation
										JOINT RightHandRing2
										{
											OFFSET 0.00000 4.91015 0.00000
											CHANNELS 3 Zrotation Xrotation Yrotation
											JOINT RightHandRing3
											{
												OFFSET 0.00000 3.11376 0.00000
												CHANNELS 3 Zrotation Xrotation Yrotation
												End site
												{
													OFFSET 0.00000 2.03592 0.00000
												}
											}
										}
									}
									JOINT RightHandPinky1
									{
										OFFSET 0.00000 9.70055 -5.26943
										CHANNELS 3 Zrotation Xrotation Yrotation
										JOINT RightHandPinky2
										{
											OFFSET 0.00000 3.95207 0.00000
											CHANNELS 3 Zrotation Xrotation Yrotation
											JOINT RightHandPinky3
											{
												OFFSET 0.00000 2.15568 0.00000
												CHANNELS 3 Zrotation Xrotation Yrotation
												End site
												{
													OFFSET 0.00000 1.91616 0.00000
												}
											}
										}
									}
								}
							}
						}
					}
					JOINT LeftShoulder
					{
						OFFSET 0.00000 7.98668 5.19711
						CHANNELS 3 Zrotation Xrotation Yrotation
						JOINT LeftArm
						{
							OFFSET 0.00000 18.31580 0.00000
							CHANNELS 3 Zrotation Xrotation Yrotation
							JOINT LeftForeArm
							{
								OFFSET 0.00000 28.87420 0.00000
								CHANNELS 3 Zrotation Xrotation Yrotation
								JOINT LeftHand
								{
									OFFSET 0.00000 23.87720 0.00000
									CHANNELS 3 Zrotation Xrotation Yrotation
									JOINT LeftHandThumb1
									{
										OFFSET 2.41094 4.67063 3.47303
										CHANNELS 3 Zrotation Xrotation Yrotation
										JOINT LeftHandThumb2
										{
											OFFSET 0.00000 3.95207 0.00000
											CHANNELS 3 Zrotation Xrotation Yrotation
											JOINT LeftHandThumb3
											{
												OFFSET 0.00000 2.15568 0.00000
												CHANNELS 3 Zrotation Xrotation Yrotation
												End site
												{
													OFFSET 0.00000 1.60000 0.00000
												}
											}
										}
									}
									JOINT LeftHandIndex1
									{
										OFFSET 0.00000 12.45500 2.51496
										CHANNELS 3 Zrotation Xrotation Yrotation
										JOINT LeftHandIndex2
										{
											OFFSET 0.00000 4.79039 0.00000
											CHANNELS 3 Zrotation Xrotation Yrotation
											JOINT LeftHandIndex3
											{
												OFFSET 0.00000 2.63472 0.00000
												CHANNELS 3 Zrotation Xrotation Yrotation
												End site
												{
													OFFSET 0.00000 1.91616 0.00000
												}
											}
										}
									}
									JOINT LeftHandMiddle1
									{
										OFFSET 0.00000 12.45500 -0.07984
										CHANNELS 3 Zrotation Xrotation Yrotation
										JOINT LeftHandMiddle2
										{
											OFFSET 0.00000 5.38919 0.00000
											CHANNELS 3 Zrotation Xrotation Yrotation
											JOINT LeftHandMiddle3
											{
												OFFSET 0.00000 3.11376 0.00000
												CHANNELS 3 Zrotation Xrotation Yrotation
												End site
												{
													OFFSET 0.00000 2.03592 0.00000
												}
											}
										}
									}
									JOINT LeftHandRing1
									{
										OFFSET 0.00000 11.07780 -2.67464
										CHANNELS 3 Zrotation Xrotation Yrotation
										JOINT LeftHandRing2
										{
											OFFSET 0.00000 4.91015 0.00000
											CHANNELS 3 Zrotation Xrotation Yrotation
											JOINT LeftHandRing3
											{
												OFFSET 0.00000 3.11376 0.00000
												CHANNELS 3 Zrotation Xrotation Yrotation
												End site
												{
													OFFSET 0.00000 2.03592 0.00000
												}
											}
										}
									}
									JOINT LeftHandPinky1
									{
										OFFSET 0.00000 9.70055 -5.26943
										CHANNELS 3 Zrotation Xrotation Yrotation
										JOINT LeftHandPinky2
										{
											OFFSET 0.00000 3.95207 0.00000
											CHANNELS 3 Zrotation Xrotation Yrotation
											JOINT LeftHandPinky3
											{
												OFFSET 0.00000 2.15568 0.00000
												CHANNELS 3 Zrotation Xrotation Yrotation
												End site
												{
													OFFSET 0.00000 1.91616 0.00000
												}
											}
										}
									}
								}
							}
						}
					}
				}
			}
		}
	}
	JOINT RightUpLeg
	{
		OFFSET -10.06560 0.00000 0.00000
		CHANNELS 3 Zrotation Xrotation Yrotation
		JOINT RightLeg
		{
			OFFSET 0.00000 -42.98740 0.00000
			CHANNELS 3 Zrotation Xrotation Yrotation
			JOINT RightFoot
			{
				OFFSET 0.00000 -44.62500 0.00000
				CHANNELS 3 Zrotation Xrotation Yrotation
				JOINT RightForeFoot
				{
					OFFSET 0.00000 -3.74821 0.00000
					CHANNELS 3 Zrotation Xrotation Yrotation
					JOINT RightToeBase
					{
						OFFSET 0.00000 0.00000 14.67920
						CHANNELS 3 Zrotation Xrotation Yrotation
						End site
						{
							OFFSET 0.00000 0.00000 10.36040
						}
					}
				}
			}
		}
	}
	JOINT LeftUpLeg
	{
		OFFSET 10.06560 0.00000 0.00000
		CHANNELS 3 Zrotation Xrotation Yrotation
		JOINT LeftLeg
		{
			OFFSET 0.00000 -42.98740 0.00000
			CHANNELS 3 Zrotation Xrotation Yrotation
			JOINT LeftFoot
			{
				OFFSET 0.00000 -44.62500 0.00000
				CHANNELS 3 Zrotation Xrotation Yrotation
				JOINT LeftForeFoot
				{
					OFFSET 0.00000 -3.74821 0.00000
					CHANNELS 3 Zrotation Xrotation Yrotation
					JOINT LeftToeBase
					{
						OFFSET 0.00000 0.00000 14.67920
						CHANNELS 3 Zrotation Xrotation Yrotation
						End site
						{
							OFFSET 0.00000 0.00000 10.67280
						}
					}
				}
			}
		}
	}
}
MOTION
Frames: 5
Frame Time: 0.016667
-12.502 92.5583 -4.6099 -5.8035 11.1358 -175.326 -5.79084 9.00451 -0.248548 -2.35943 7.87135 0.845686 -1.0718 2.76494 -2.49408 3.68613 1.7523 -1.56985 -5.024 14.7031 3.23408 0.470792 -3.6909 4.00169 -0.0772872 -17.8042 0.255903 101.962 -16.1781 3.3784 62.5833 5.85963 -31.4816 -1.39085e-05 36.7605 -11.3425 12.143 -8.10685 -5.1517e-05 -5.31039 9.72872 0.899876 1.59028e-15 -3.18055e-15 3.18055e-15 0.0 0.0 -3.18055e-15 3.31848 1.59028e-15 6.36111e-15 -2.38542e-15 0.0 -0.0 0.0 1.59028e-15 -0.0 11.8289 3.18055e-15 6.36111e-15 -3.97569e-15 4.77083e-15 9.54166e-15 -0.0 0.0 3.18055e-15 19.307 4.17448e-15 3.18055e-15 3.57812e-15 -1.98785e-15 -0.0 -1.98785e-16 9.93923e-16 -6.36111e-15 41.8725 3.18055e-15 6.36111e-15 2.38542e-15 3.18055e-15 -0.0 -1.59028e-15 3.18055e-15 -0.0 -93.8857 -17.5813 -1.17534 -90.0077 49.95 54.4631 179.999 44.0182 -169.948 12.6068 9.24794 6.47429e-05 28.7594 27.9095 -14.4077 1.59028e-15 -3.18055e-15 6.36111e-15 0.0 3.18055e-15 -0.0 28.3476 -1.59028e-15 1.59028e-15 -1.09332e-15 5.96354e-16 1.59028e-15 3.97569e-16 3.97569e-16 -0.0 16.9909 -2.5842e-15 1.59028e-15 3.47873e-16 -3.97569e-16 3.18055e-15 2.48481e-16 -1.98785e-16 6.36111e-15 -1.34742 -1.59028e-15 3.18055e-15 2.78299e-15 0.0 1.59028e-15 2.98177e-15 0.0 3.18055e-15 -32.9813 1.59028e-15 1.59028e-15 -1.98785e-15 0.0 1.59028e-15 1.59028e-15 1.59028e-15 -1.59028e-15 -4.15761 8.10751 -7.95968 1.23997e-17 11.9121 1.62528e-15 -3.91548 -14.3447 -8.86957 4.41391e-32 -7.95139e-16 3.18055e-15 -3.26548e-16 12.8259 3.26194e-15 3.28687 8.25652 25.8959 -7.32103e-16 18.3826 -3.35158e-15 -4.19253 -6.70268 -0.402473 -4.41391e-32 7.95139e-16 3.18055e-15 -3.97569e-16 -2.02864 -0.0
-1.53123 91.7509 -0.928507 -12.3498 11.7077 -167.776 -10.4335 9.48169 0.0245992 -2.21396 6.33781 0.884442 -1.94151 2.73202 -0.070419 2.30672 1.11761 -1.10999 -0.900079 4.87341 -2.22001 -0.979628 -5.23585 -9.54006 0.0698493 -19.255 -0.717831 100.657 -16.4743 3.05455 59.6519 -0.640031 27.6818 7.81353e-06 86.0471 68.5262 -4.12327 -4.2694 -1.11629e-14 -32.4102 32.7742 18.9665 0.0 0.0 -3.18055e-15 0.0 1.59028e-15 -0.0 -22.0924 -1.59028e-15 6.36111e-15 3.18055e-15 -9.54166e-15 6.36111e-15 3.18055e-15 -9.54166e-15 6.36111e-15 -12.4727 0.0 6.36111e-15 -2.64834e-31 9.54166e-15 1.59028e-15 -0.0 -3.18055e-15 -0.0 8.52501 3.18055e-15 4.77083e-15 -3.18055e-15 3.18055e-15 -9.54166e-15 -3.18055e-15 -3.18055e-15 4.77083e-15 49.9826 3.18055e-15 3.18055e-15 6.36111e-15 -6.36111e-15 9.54166e-15 -1.76556e-31 3.18055e-15 3.18055e-15 -101.823 -15.6881 -3.23961 -64.9495 0.791431 -17.1516 -180.0 86.5789 113.466 22.5835 -5.7738 3.19677e-15 42.3509 36.3485 -28.3812 -6.36111e-15 3.18055e-15 1.27222e-14 -7.95139e-15 3.18055e-15 -0.0 34.0908 5.56597e-15 9.54166e-15 -3.18055e-15 -3.97569e-15 -0.0 1.59028e-15 4.77083e-15 -0.0 20.532 1.59028e-15 3.18055e-15 6.36111e-15 -1.59028e-15 6.36111e-15 -6.36111e-15 -3.18055e-15 3.18055e-15 -8.47312 6.36111e-15 -3.18055e-15 -1.76556e-31 -3.18055e-15 -3.18055e-15 6.36111e-15 -6.36111e-15 6.36111e-15 -53.4396 1.59028e-14 -1.78906e-14 1.59028e-15 0.0 3.57812e-15 -1.59028e-15 0.0 2.78299e-15 -13.171 0.318191 -3.63919 -8.36668e-17 31.2771 -5.5821e-15 -2.09175 -18.1986 -9.3066 -2.48481e-17 1.98785e-16 3.97569e-16 -2.75474e-16 8.94099 2.0123e-15 -13.1117 9.35869 11.5295 -2.83368e-15 14.8925 3.2911e-15 4.68917 -7.21761 -5.86469 -8.82781e-32 -1.59028e-15 -3.18055e-15 1.04762e-16 -3.38359 -1.59305e-15
-0.693162 91.3546 25.2811 -3.35353 12.1027 163.526 -7.81971 9.29399 0.641903 -2.5429 7.2118 1.04779 -3.16432 2.47738 3.66103 2.27888 0.322327 -0.523884 4.75852 8.79609 -4.95533 0.389766 -3.4985 -18.0001 1.95108 -16.703 -1.45621 94.7822 -12.4282 1.03125 65.019 50.6203 -51.2918 -0.00895172 81.382 -16.3264 3.13134 -1.8115 -0.000200406 -4.46524 18.0879 1.3889 -3.18055e-15 -3.18055e-15 -4.77083e-15 -1.59028e-15 -3.18055e-15 -3.18055e-15 -21.8355 3.18055e-15 4.75841e-15 -8.19987e-16 -6.36111e-15 -9.28076e-15 1.59028e-15 -3.18055e-15 -2.5345e-15 -14.4351 6.36111e-15 -1.19271e-15 -1.59028e-15 0.0 -2.38542e-15 7.95139e-16 0.0 -2.78299e-15 1.46324 -3.18055e-15 -1.59028e-15 -3.18055e-15 0.0 1.59028e-15 0.0 0.0 -1.59028e-15 35.7947 -6.36111e-15 -3.18055e-15 3.18055e-15 -9.54166e-15 6.36111e-15 9.54166e-15 -3.18055e-15 -6.36111e-15 -101.725 -13.2784 -2.72901 -61.5656 17.6722 -23.7379 179.999 65.3803 -164.201 36.0743 -1.24007 -0.00500234 8.13036 30.9742 -4.21823 5.2181e-16 -2.95692e-15 -0.0 2.13694e-15 -2.90723e-15 -9.54166e-15 29.4653 -3.97569e-15 -3.18055e-15 1.14762e-30 -1.03368e-14 6.36111e-15 -7.95139e-16 1.98785e-15 6.36111e-15 20.4602 -7.7526e-15 -3.18055e-15 3.18055e-15 -7.45443e-15 -0.0 -3.18055e-15 -5.96354e-16 3.18055e-15 2.48465 7.95139e-16 6.36111e-15 -3.18055e-15 1.59028e-15 3.18055e-15 -3.18055e-15 -2.38542e-15 -9.54166e-15 -30.6607 -3.18055e-15 1.43125e-14 -3.53113e-31 6.36111e-15 3.18055e-15 9.54166e-15 -3.18055e-15 9.54166e-15 -5.75319 16.9667 -8.88958 2.6295e-16 11.7321 -3.24842e-15 0.2884 -20.9475 0.0369479 -1.98785e-16 -7.95139e-16 -6.36111e-15 1.30434e-15 11.5878 -6.49346e-15 1.93622 -5.36049 26.2338 2.06077e-16 17.2343 3.33007e-15 -1.69602 4.26404 2.68506 9.93923e-17 -3.97569e-16 1.59028e-15 1.02702e-17 -3.94476 1.59405e-15
1.88999 92.2332 36.9994 -3.06236 8.22702 153.508 -3.26046 10.2102 -0.429525 -1.50657 6.51249 0.283321 0.328838 2.49232 -9.29127 5.0526 1.39379 -2.97201 -5.30095 5.7711 5.31754 -1.34207 -5.4048 15.8242 -3.37535 -18.41 1.35547 103.868 -20.6027 4.96502 58.7931 -4.94744 7.52304 1.38841e-07 25.3261 -8.34635 14.3216 -6.44134 -0.0 2.11095 7.58914 -0.278914 1.59028e-15 1.19271e-15 -1.27222e-14 3.97569e-16 3.97569e-16 -6.36111e-15 2.42696 -7.95139e-16 -3.18055e-15 7.95139e-16 0.0 -3.18055e-15 7.95139e-16 0.0 -3.18055e-15 11.2613 2.98177e-16 -0.0 5.96354e-16 1.3418e-15 -0.0 -4.96962e-16 5.46658e-16 -6.36111e-15 19.2849 -2.38542e-15 -3.18055e-15 7.95139e-16 -7.95139e-16 3.18055e-15 -7.95139e-16 -3.18055e-15 -6.36111e-15 42.8552 3.18055e-15 3.18055e-15 -6.36111e-15 3.18055e-15 -3.18055e-15 0.0 0.0 -0.0 -99.5706 -9.8203 -1.64725 -70.7392 15.5848 50.7896 6.2613e-06 78.0995 45.3641 -25.5091 -0.393634 -6.36126e-15 -0.63662 19.8836 0.216537 -4.77083e-15 0.0 -3.18055e-15 1.59028e-15 -3.18055e-15 -0.0 -3.55311 -2.38542e-15 3.18055e-15 2.38542e-15 0.0 -0.0 1.19271e-14 -3.18055e-15 -3.18055e-15 -12.8378 -4.77083e-15 3.18055e-15 1.76556e-31 -1.59028e-15 6.36111e-15 -1.59028e-15 1.59028e-15 3.18055e-15 -18.8775 -3.18055e-15 -3.18055e-15 5.29669e-31 4.77083e-15 -6.36111e-15 -7.95139e-15 4.77083e-15 -3.18055e-15 -35.8729 0.0 3.18055e-15 -3.18055e-15 0.0 -0.0 -4.77083e-15 3.18055e-15 -3.18055e-15 -1.30686 6.03175 0.269913 1.30858e-15 10.1379 -9.693e-15 -4.57431 -15.3492 -1.59508 3.97569e-16 0.0 -3.18055e-15 6.69075e-16 11.8798 -3.25017e-15 1.1588 4.70264 29.1125 2.96829e-15 41.3964 -7.41978e-15 -5.11291 -8.22526 1.73895 7.95139e-16 0.0 -1.59028e-15 -2.49507e-16 -5.97125 -2.39843e-15
6.41247 92.3767 4.72647 -9.72832 15.3154 -174.578 0.489964 9.8969 -1.4915 -1.61584 8.70012 0.440826 1.15844 2.22394 -3.50664 6.01933 1.6666 -1.70293 -5.52057 18.4007 3.15754 -1.31608 -7.08388 3.91942 -1.86556 -20.9816 0.363379 101.67 -17.3445 3.5244 47.7252 17.1582 -16.9282 180.0 83.0065 -176.253 10.292 -9.1052 2.07936e-06 1.49055 8.61498 -0.223015 0.0 0.0 -3.97569e-16 -3.18055e-15 -1.59028e-15 -2.38542e-15 18.1703 -3.97569e-15 -5.36719e-15 -8.10366e-32 -9.93923e-16 -4.67144e-15 -8.10366e-32 -9.93923e-16 -4.67144e-15 30.937 -4.37326e-15 -2.38542e-15 6.36111e-15 -2.98177e-15 2.5842e-15 -6.36111e-15 -3.57812e-15 -0.0 36.2388 0.0 3.97569e-16 -3.18055e-15 1.59028e-15 2.18663e-15 -3.18055e-15 5.36719e-15 1.39149e-15 58.8866 -6.5102e-15 3.57812e-15 -3.18055e-15 -2.08724e-15 -1.98785e-16 -3.18055e-15 -2.08724e-15 -1.59028e-15 -91.7659 -15.7527 -0.477497 -34.6941 44.5411 -6.6128 179.088 86.4985 161.673 -1.98693 0.232877 0.00112178 3.30493 13.4939 -0.778662 -5.96354e-16 9.54166e-15 3.37934e-15 -1.98785e-15 6.36111e-15 -1.39149e-15 -7.97292 -9.54166e-15 -3.18055e-15 1.59028e-15 3.18055e-15 1.11319e-14 -1.59028e-15 -3.18055e-15 3.18055e-15 -28.99 -9.54166e-15 -3.18055e-15 -6.36111e-15 9.54166e-15 -0.0 0.0 6.36111e-15 -0.0 -39.6391 -1.27222e-14 -6.36111e-15 3.18055e-15 -3.18055e-15 6.36111e-15 -3.18055e-15 -3.18055e-15 -6.36111e-15 -65.2906 -9.54166e-15 9.54166e-15 3.18055e-15 6.36111e-15 6.36111e-15 -1.59028e-15 3.18055e-15 -3.18055e-15 -6.08066 15.6746 -9.07877 -1.76562e-16 11.8781 8.12537e-16 -5.42859 -17.1803 -13.7657 1.98785e-16 1.59028e-15 -0.0 -1.98785e-16 13.8957 -0.0 4.52388 8.80403 24.2539 2.78256e-15 26.5712 3.55616e-15 -7.99906 -0.611978 -11.0905 7.95139e-16 -1.59028e-15 -0.0 -3.44521e-16 -8.06393 3.21232e-15
